<mxfile host="65bd71144e" modified="2020-12-17T23:45:41.851Z" agent="5.0 (Macintosh; Intel Mac OS X 11_0_0) AppleWebKit/537.36 (KHTML, like Gecko) Code/1.52.0 Chrome/83.0.4103.122 Electron/9.3.5 Safari/537.36" etag="KYorESwUe0ODerY8l5rM" version="13.10.0" type="embed">
    <diagram id="Asy18AFJ6QYYNwecmy-R" name="Page-1">
        <mxGraphModel dx="2416" dy="1176" grid="1" gridSize="10" guides="1" tooltips="1" connect="1" arrows="1" fold="1" page="1" pageScale="1" pageWidth="850" pageHeight="1100" math="0" shadow="0">
            <root>
                <mxCell id="0"/>
                <mxCell id="1" parent="0"/>
                <mxCell id="2" value="User login" style="rounded=1;whiteSpace=wrap;html=1;fontSize=12;glass=0;strokeWidth=1;shadow=0;" parent="1" vertex="1">
                    <mxGeometry x="120" y="80" width="120" height="40" as="geometry"/>
                </mxCell>
                <mxCell id="3" value="Select user" style="rounded=1;whiteSpace=wrap;html=1;fontSize=12;glass=0;strokeWidth=1;shadow=0;" parent="1" vertex="1">
                    <mxGeometry x="310" y="170" width="120" height="40" as="geometry"/>
                </mxCell>
                <mxCell id="4" value="User look up" style="rounded=1;whiteSpace=wrap;html=1;" parent="1" vertex="1">
                    <mxGeometry x="310" y="70" width="120" height="60" as="geometry"/>
                </mxCell>
                <mxCell id="5" value="User Profile Page" style="swimlane;fontStyle=0;childLayout=stackLayout;horizontal=1;startSize=26;horizontalStack=0;resizeParent=1;resizeParentMax=0;resizeLast=0;collapsible=1;marginBottom=0;align=center;fontSize=14;" parent="1" vertex="1">
                    <mxGeometry x="100" y="190" width="160" height="180" as="geometry"/>
                </mxCell>
                <mxCell id="6" value="Name: String" style="text;strokeColor=none;fillColor=none;spacingLeft=4;spacingRight=4;overflow=hidden;rotatable=0;points=[[0,0.5],[1,0.5]];portConstraint=eastwest;fontSize=12;" parent="5" vertex="1">
                    <mxGeometry y="26" width="160" height="30" as="geometry"/>
                </mxCell>
                <mxCell id="7" value="Email: String" style="text;strokeColor=none;fillColor=none;spacingLeft=4;spacingRight=4;overflow=hidden;rotatable=0;points=[[0,0.5],[1,0.5]];portConstraint=eastwest;fontSize=12;" parent="5" vertex="1">
                    <mxGeometry y="56" width="160" height="30" as="geometry"/>
                </mxCell>
                <mxCell id="8" value="Trips: [{String}]" style="text;strokeColor=none;fillColor=none;spacingLeft=4;spacingRight=4;overflow=hidden;rotatable=0;points=[[0,0.5],[1,0.5]];portConstraint=eastwest;fontSize=12;" parent="5" vertex="1">
                    <mxGeometry y="86" width="160" height="30" as="geometry"/>
                </mxCell>
                <mxCell id="9" value="Friends: Input.on(click)" style="text;strokeColor=none;fillColor=none;spacingLeft=4;spacingRight=4;overflow=hidden;rotatable=0;points=[[0,0.5],[1,0.5]];portConstraint=eastwest;fontSize=12;" parent="5" vertex="1">
                    <mxGeometry y="116" width="160" height="30" as="geometry"/>
                </mxCell>
                <mxCell id="10" value="Bio: String" style="text;strokeColor=none;fillColor=none;spacingLeft=4;spacingRight=4;overflow=hidden;rotatable=0;points=[[0,0.5],[1,0.5]];portConstraint=eastwest;fontSize=12;" parent="5" vertex="1">
                    <mxGeometry y="146" width="160" height="34" as="geometry"/>
                </mxCell>
                <mxCell id="11" value="" style="endArrow=none;html=1;rounded=0;exitX=0.5;exitY=1;exitDx=0;exitDy=0;entryX=0.5;entryY=0;entryDx=0;entryDy=0;" parent="1" source="2" target="5" edge="1">
                    <mxGeometry relative="1" as="geometry">
                        <mxPoint x="170" y="300" as="sourcePoint"/>
                        <mxPoint x="330" y="300" as="targetPoint"/>
                    </mxGeometry>
                </mxCell>
                <mxCell id="12" value="" style="edgeStyle=entityRelationEdgeStyle;fontSize=12;html=1;endArrow=ERzeroToMany;startArrow=ERzeroToOne;exitX=0;exitY=0.5;exitDx=0;exitDy=0;entryX=1;entryY=0.5;entryDx=0;entryDy=0;" parent="1" source="8" target="13" edge="1">
                    <mxGeometry width="100" height="100" relative="1" as="geometry">
                        <mxPoint x="-30" y="210" as="sourcePoint"/>
                        <mxPoint x="20" y="301" as="targetPoint"/>
                    </mxGeometry>
                </mxCell>
                <mxCell id="13" value="Trips List" style="rounded=1;whiteSpace=wrap;html=1;" parent="1" vertex="1">
                    <mxGeometry x="-120" y="261" width="120" height="60" as="geometry"/>
                </mxCell>
                <mxCell id="14" value="Friends List" style="rounded=1;whiteSpace=wrap;html=1;" parent="1" vertex="1">
                    <mxGeometry x="-120" y="336" width="120" height="60" as="geometry"/>
                </mxCell>
                <mxCell id="15" value="" style="edgeStyle=entityRelationEdgeStyle;fontSize=12;html=1;endArrow=ERzeroToMany;startArrow=ERzeroToOne;exitX=0;exitY=0.5;exitDx=0;exitDy=0;entryX=1;entryY=0.5;entryDx=0;entryDy=0;" parent="1" source="9" target="14" edge="1">
                    <mxGeometry width="100" height="100" relative="1" as="geometry">
                        <mxPoint x="-30" y="290" as="sourcePoint"/>
                        <mxPoint x="70" y="190" as="targetPoint"/>
                    </mxGeometry>
                </mxCell>
                <mxCell id="16" value="This route will not allow you to comment or like unless you sign in with an account" style="text;html=1;strokeColor=none;fillColor=none;align=center;verticalAlign=middle;whiteSpace=wrap;rounded=0;" parent="1" vertex="1">
                    <mxGeometry x="500" y="110" width="40" height="20" as="geometry"/>
                </mxCell>
                <mxCell id="17" value="" style="endArrow=none;html=1;rounded=0;entryX=0;entryY=0.75;entryDx=0;entryDy=0;exitX=1;exitY=0.75;exitDx=0;exitDy=0;" parent="1" source="4" target="16" edge="1">
                    <mxGeometry relative="1" as="geometry">
                        <mxPoint x="190" y="160" as="sourcePoint"/>
                        <mxPoint x="350" y="160" as="targetPoint"/>
                    </mxGeometry>
                </mxCell>
                <mxCell id="18" value="" style="endArrow=none;html=1;rounded=0;entryX=0;entryY=0.5;entryDx=0;entryDy=0;exitX=1;exitY=0.5;exitDx=0;exitDy=0;" parent="1" source="2" target="4" edge="1">
                    <mxGeometry relative="1" as="geometry">
                        <mxPoint x="110" y="160" as="sourcePoint"/>
                        <mxPoint x="270" y="160" as="targetPoint"/>
                    </mxGeometry>
                </mxCell>
                <mxCell id="19" value="Home page" style="swimlane;" parent="1" vertex="1">
                    <mxGeometry x="-151" y="520" width="630" height="850" as="geometry"/>
                </mxCell>
                <mxCell id="20" value="Login" style="rounded=1;arcSize=10;whiteSpace=wrap;html=1;align=center;" parent="19" vertex="1">
                    <mxGeometry x="430" y="150" width="100" height="40" as="geometry"/>
                </mxCell>
                <mxCell id="21" value="New user" style="rounded=1;arcSize=10;whiteSpace=wrap;html=1;align=center;" parent="19" vertex="1">
                    <mxGeometry x="430" y="190" width="100" height="40" as="geometry"/>
                </mxCell>
                <mxCell id="22" value="Full page background" style="rounded=1;arcSize=10;whiteSpace=wrap;html=1;align=center;" parent="19" vertex="1">
                    <mxGeometry x="266" y="390" width="100" height="40" as="geometry"/>
                </mxCell>
                <mxCell id="23" value="Website about:&lt;br&gt;contacts, copyright etc." style="rounded=1;arcSize=10;whiteSpace=wrap;html=1;align=center;" parent="19" vertex="1">
                    <mxGeometry x="10" y="770" width="610" height="70" as="geometry"/>
                </mxCell>
                <mxCell id="24" value="&lt;font style=&quot;font-size: 24px&quot;&gt;Speakeasy Travel&lt;br&gt;(with background styling)&lt;/font&gt;" style="rounded=1;arcSize=10;whiteSpace=wrap;html=1;align=center;" parent="19" vertex="1">
                    <mxGeometry y="25" width="280" height="85" as="geometry"/>
                </mxCell>
                <mxCell id="25" value="Short and quick description about the app/website that will get the user's attention and not make them ask too many questions in their head and intrigue them to explore and/or sign up.&lt;br&gt;(slight opaque background)" style="rounded=1;arcSize=10;whiteSpace=wrap;html=1;align=center;" parent="19" vertex="1">
                    <mxGeometry x="380" y="230" width="200" height="120" as="geometry"/>
                </mxCell>
                <mxCell id="26" value="User Show Page" style="swimlane;startSize=30;" parent="1" vertex="1">
                    <mxGeometry x="-151" y="1390" width="630" height="850" as="geometry"/>
                </mxCell>
                <mxCell id="27" value="" style="rounded=1;whiteSpace=wrap;html=1;" parent="26" vertex="1">
                    <mxGeometry y="310" width="630" height="110" as="geometry"/>
                </mxCell>
                <mxCell id="28" value="&lt;div&gt;Name:&lt;/div&gt;&lt;div&gt;email:&lt;/div&gt;&lt;div&gt;&lt;br&gt;&lt;/div&gt;" style="text;strokeColor=none;fillColor=none;html=1;whiteSpace=wrap;verticalAlign=middle;overflow=hidden;" parent="26" vertex="1">
                    <mxGeometry x="20" y="320" width="170" height="30" as="geometry"/>
                </mxCell>
                <mxCell id="29" value="Background header" style="rounded=1;whiteSpace=wrap;html=1;" parent="26" vertex="1">
                    <mxGeometry y="90" width="630" height="210" as="geometry"/>
                </mxCell>
                <mxCell id="30" value="Profile pic" style="rounded=1;whiteSpace=wrap;html=1;" parent="26" vertex="1">
                    <mxGeometry x="10" y="97.5" width="190" height="195" as="geometry"/>
                </mxCell>
                <mxCell id="31" value="Username" style="text;html=1;strokeColor=none;fillColor=none;align=center;verticalAlign=middle;whiteSpace=wrap;rounded=0;" parent="26" vertex="1">
                    <mxGeometry x="85" y="210" width="40" height="20" as="geometry"/>
                </mxCell>
                <UserObject label="Trips" link="https://www.draw.io" id="32">
                    <mxCell style="text;html=1;strokeColor=none;fillColor=none;whiteSpace=wrap;align=center;verticalAlign=middle;fontColor=#0000EE;fontStyle=4;rounded=0;sketch=0;" parent="26" vertex="1">
                        <mxGeometry x="285" y="450" width="60" height="40" as="geometry"/>
                    </mxCell>
                </UserObject>
                <mxCell id="33" value="Bio:" style="text;html=1;strokeColor=none;fillColor=none;align=center;verticalAlign=middle;whiteSpace=wrap;rounded=0;sketch=0;" parent="26" vertex="1">
                    <mxGeometry x="210" y="320" width="40" height="20" as="geometry"/>
                </mxCell>
                <mxCell id="34" style="edgeStyle=orthogonalEdgeStyle;curved=0;rounded=1;sketch=0;orthogonalLoop=1;jettySize=auto;html=1;exitX=0.5;exitY=0;exitDx=0;exitDy=0;entryX=0.75;entryY=0;entryDx=0;entryDy=0;" parent="26" edge="1">
                    <mxGeometry relative="1" as="geometry">
                        <mxPoint x="35" y="290" as="sourcePoint"/>
                        <mxPoint x="45" y="290" as="targetPoint"/>
                    </mxGeometry>
                </mxCell>
                <mxCell id="35" value="Full background" style="rounded=1;whiteSpace=wrap;html=1;sketch=0;" parent="26" vertex="1">
                    <mxGeometry x="247" y="589" width="120" height="60" as="geometry"/>
                </mxCell>
                <mxCell id="36" value="" style="rounded=0;whiteSpace=wrap;html=1;sketch=0;" parent="26" vertex="1">
                    <mxGeometry y="30" width="630" height="60" as="geometry"/>
                </mxCell>
                <mxCell id="37" value="&lt;font style=&quot;font-size: 18px&quot;&gt;Speakeasy Travel&lt;/font&gt;" style="text;html=1;strokeColor=none;fillColor=none;align=center;verticalAlign=middle;whiteSpace=wrap;rounded=0;sketch=0;" parent="26" vertex="1">
                    <mxGeometry x="10" y="40" width="150" height="40" as="geometry"/>
                </mxCell>
                <UserObject label="Delete/edit" link="https://www.draw.io" id="38">
                    <mxCell style="text;html=1;strokeColor=none;fillColor=none;whiteSpace=wrap;align=center;verticalAlign=middle;fontColor=#0000EE;fontStyle=4;rounded=0;sketch=0;" parent="26" vertex="1">
                        <mxGeometry x="550" y="40" width="60" height="40" as="geometry"/>
                    </mxCell>
                </UserObject>
                <mxCell id="39" value="" style="edgeStyle=entityRelationEdgeStyle;fontSize=12;html=1;endArrow=ERmany;entryX=1;entryY=0.25;entryDx=0;entryDy=0;exitX=1;exitY=1;exitDx=0;exitDy=0;" parent="1" source="4" target="3" edge="1">
                    <mxGeometry width="100" height="100" relative="1" as="geometry">
                        <mxPoint x="324" y="341" as="sourcePoint"/>
                        <mxPoint x="424" y="241" as="targetPoint"/>
                    </mxGeometry>
                </mxCell>
                <mxCell id="40" value="" style="edgeStyle=entityRelationEdgeStyle;fontSize=12;html=1;endArrow=ERone;endFill=1;exitX=0;exitY=0.5;exitDx=0;exitDy=0;entryX=1;entryY=0.5;entryDx=0;entryDy=0;" parent="1" source="3" target="7" edge="1">
                    <mxGeometry width="100" height="100" relative="1" as="geometry">
                        <mxPoint x="274" y="341" as="sourcePoint"/>
                        <mxPoint x="374" y="241" as="targetPoint"/>
                    </mxGeometry>
                </mxCell>
                <mxCell id="41" value="Friends" style="swimlane;rounded=0;sketch=0;" parent="1" vertex="1">
                    <mxGeometry x="-144.5" y="6650" width="630" height="850" as="geometry"/>
                </mxCell>
                <mxCell id="42" value="&lt;font style=&quot;font-size: 41px&quot;&gt;ad&lt;/font&gt;" style="rounded=1;whiteSpace=wrap;html=1;sketch=0;" parent="41" vertex="1">
                    <mxGeometry x="490" y="35" width="120" height="60" as="geometry"/>
                </mxCell>
                <mxCell id="43" value="&lt;font style=&quot;font-size: 41px&quot;&gt;ad&lt;/font&gt;" style="rounded=1;whiteSpace=wrap;html=1;sketch=0;" parent="41" vertex="1">
                    <mxGeometry x="490" y="270" width="120" height="60" as="geometry"/>
                </mxCell>
                <mxCell id="44" value="&lt;font style=&quot;font-size: 41px&quot;&gt;ad&lt;/font&gt;" style="rounded=1;whiteSpace=wrap;html=1;sketch=0;" parent="41" vertex="1">
                    <mxGeometry x="490" y="510" width="120" height="60" as="geometry"/>
                </mxCell>
                <mxCell id="45" value="&lt;font style=&quot;font-size: 41px&quot;&gt;ad&lt;/font&gt;" style="rounded=1;whiteSpace=wrap;html=1;sketch=0;" parent="41" vertex="1">
                    <mxGeometry x="490" y="760" width="120" height="60" as="geometry"/>
                </mxCell>
                <mxCell id="46" value="" style="rounded=1;whiteSpace=wrap;html=1;sketch=0;" parent="41" vertex="1">
                    <mxGeometry x="20" y="130" width="120" height="170" as="geometry"/>
                </mxCell>
                <mxCell id="47" value="" style="rounded=1;whiteSpace=wrap;html=1;sketch=0;" parent="41" vertex="1">
                    <mxGeometry x="160" y="130" width="120" height="170" as="geometry"/>
                </mxCell>
                <mxCell id="48" value="" style="rounded=1;whiteSpace=wrap;html=1;sketch=0;" parent="41" vertex="1">
                    <mxGeometry x="300" y="130" width="120" height="170" as="geometry"/>
                </mxCell>
                <mxCell id="49" value="" style="rounded=1;whiteSpace=wrap;html=1;sketch=0;" parent="41" vertex="1">
                    <mxGeometry x="20" y="310" width="120" height="170" as="geometry"/>
                </mxCell>
                <mxCell id="50" value="" style="rounded=1;whiteSpace=wrap;html=1;sketch=0;" parent="41" vertex="1">
                    <mxGeometry x="160" y="310" width="120" height="170" as="geometry"/>
                </mxCell>
                <mxCell id="51" value="" style="rounded=1;whiteSpace=wrap;html=1;sketch=0;" parent="41" vertex="1">
                    <mxGeometry x="300" y="310" width="120" height="170" as="geometry"/>
                </mxCell>
                <mxCell id="52" value="" style="rounded=1;whiteSpace=wrap;html=1;sketch=0;" parent="41" vertex="1">
                    <mxGeometry x="300" y="490" width="120" height="170" as="geometry"/>
                </mxCell>
                <mxCell id="53" value="" style="rounded=1;whiteSpace=wrap;html=1;sketch=0;" parent="41" vertex="1">
                    <mxGeometry x="160" y="490" width="120" height="170" as="geometry"/>
                </mxCell>
                <mxCell id="54" value="" style="rounded=1;whiteSpace=wrap;html=1;sketch=0;" parent="41" vertex="1">
                    <mxGeometry x="20" y="490" width="120" height="170" as="geometry"/>
                </mxCell>
                <mxCell id="55" value="" style="rounded=1;whiteSpace=wrap;html=1;sketch=0;" parent="41" vertex="1">
                    <mxGeometry x="20" y="670" width="120" height="170" as="geometry"/>
                </mxCell>
                <mxCell id="56" value="" style="rounded=1;whiteSpace=wrap;html=1;sketch=0;" parent="41" vertex="1">
                    <mxGeometry x="160" y="670" width="120" height="170" as="geometry"/>
                </mxCell>
                <mxCell id="57" value="" style="rounded=1;whiteSpace=wrap;html=1;sketch=0;" parent="41" vertex="1">
                    <mxGeometry x="300" y="670" width="120" height="170" as="geometry"/>
                </mxCell>
                <mxCell id="58" value="Profile Pic" style="text;html=1;strokeColor=none;fillColor=none;align=center;verticalAlign=middle;whiteSpace=wrap;rounded=0;sketch=0;" parent="41" vertex="1">
                    <mxGeometry x="51" y="205" width="60" height="20" as="geometry"/>
                </mxCell>
                <mxCell id="59" value="Name" style="rounded=1;whiteSpace=wrap;html=1;sketch=0;" parent="41" vertex="1">
                    <mxGeometry x="46" y="270" width="70" height="20" as="geometry"/>
                </mxCell>
                <UserObject label="Profile main page" link="https://www.draw.io" id="60">
                    <mxCell style="text;html=1;strokeColor=none;fillColor=none;whiteSpace=wrap;align=center;verticalAlign=middle;fontColor=#0000EE;fontStyle=4;rounded=0;sketch=0;" parent="41" vertex="1">
                        <mxGeometry x="46" y="35" width="60" height="40" as="geometry"/>
                    </mxCell>
                </UserObject>
                <mxCell id="61" value="Trips index page" style="swimlane;rounded=0;sketch=0;" parent="1" vertex="1">
                    <mxGeometry x="-150" y="4020" width="629" height="850" as="geometry"/>
                </mxCell>
                <mxCell id="62" value="Cover photo of trip" style="rounded=1;whiteSpace=wrap;html=1;sketch=0;" parent="61" vertex="1">
                    <mxGeometry x="24.5" y="140" width="280" height="175" as="geometry"/>
                </mxCell>
                <mxCell id="63" value="short description&amp;nbsp;&lt;br&gt;and name of trip&lt;br&gt;" style="rounded=1;whiteSpace=wrap;html=1;sketch=0;" parent="61" vertex="1">
                    <mxGeometry x="104.5" y="240" width="120" height="60" as="geometry"/>
                </mxCell>
                <mxCell id="64" value="Cover photo of trip" style="rounded=1;whiteSpace=wrap;html=1;sketch=0;" parent="61" vertex="1">
                    <mxGeometry x="324.5" y="140" width="280" height="175" as="geometry"/>
                </mxCell>
                <mxCell id="65" value="short description&amp;nbsp;&lt;br&gt;and name of trip&lt;br&gt;" style="rounded=1;whiteSpace=wrap;html=1;sketch=0;" parent="61" vertex="1">
                    <mxGeometry x="404.5" y="240" width="120" height="60" as="geometry"/>
                </mxCell>
                <mxCell id="66" value="Cover photo of trip" style="rounded=1;whiteSpace=wrap;html=1;sketch=0;" parent="61" vertex="1">
                    <mxGeometry x="324.5" y="364" width="280" height="175" as="geometry"/>
                </mxCell>
                <mxCell id="67" value="short description&amp;nbsp;&lt;br&gt;and name of trip&lt;br&gt;" style="rounded=1;whiteSpace=wrap;html=1;sketch=0;" parent="61" vertex="1">
                    <mxGeometry x="404.5" y="469" width="120" height="60" as="geometry"/>
                </mxCell>
                <mxCell id="68" value="Cover photo of trip" style="rounded=1;whiteSpace=wrap;html=1;sketch=0;" parent="61" vertex="1">
                    <mxGeometry x="24.5" y="364" width="280" height="175" as="geometry"/>
                </mxCell>
                <mxCell id="69" value="short description&amp;nbsp;&lt;br&gt;and name of trip&lt;br&gt;" style="rounded=1;whiteSpace=wrap;html=1;sketch=0;" parent="61" vertex="1">
                    <mxGeometry x="104.5" y="469" width="120" height="60" as="geometry"/>
                </mxCell>
                <mxCell id="70" value="Cover photo of trip" style="rounded=1;whiteSpace=wrap;html=1;sketch=0;" parent="61" vertex="1">
                    <mxGeometry x="24.5" y="600" width="280" height="175" as="geometry"/>
                </mxCell>
                <mxCell id="71" value="short description&amp;nbsp;&lt;br&gt;and name of trip&lt;br&gt;" style="rounded=1;whiteSpace=wrap;html=1;sketch=0;" parent="61" vertex="1">
                    <mxGeometry x="104.5" y="705" width="120" height="60" as="geometry"/>
                </mxCell>
                <mxCell id="72" value="Cover photo of trip" style="rounded=1;whiteSpace=wrap;html=1;sketch=0;" parent="61" vertex="1">
                    <mxGeometry x="324.5" y="600" width="280" height="175" as="geometry"/>
                </mxCell>
                <mxCell id="73" value="short description&amp;nbsp;&lt;br&gt;and name of trip&lt;br&gt;" style="rounded=1;whiteSpace=wrap;html=1;sketch=0;" parent="61" vertex="1">
                    <mxGeometry x="404.5" y="705" width="120" height="60" as="geometry"/>
                </mxCell>
                <UserObject label="Add trip" link="https://www.draw.io" id="74">
                    <mxCell style="text;html=1;strokeColor=none;fillColor=none;whiteSpace=wrap;align=center;verticalAlign=middle;fontColor=#0000EE;fontStyle=4;rounded=0;sketch=0;" parent="61" vertex="1">
                        <mxGeometry x="289" y="45" width="60" height="40" as="geometry"/>
                    </mxCell>
                </UserObject>
                <mxCell id="75" value="Trip Show page" style="swimlane;rounded=0;sketch=0;" parent="1" vertex="1">
                    <mxGeometry x="-150" y="4900" width="631" height="850" as="geometry"/>
                </mxCell>
                <mxCell id="76" value="" style="rounded=1;whiteSpace=wrap;html=1;sketch=0;" parent="75" vertex="1">
                    <mxGeometry y="230" width="630" height="380" as="geometry"/>
                </mxCell>
                <mxCell id="77" value="" style="rounded=1;whiteSpace=wrap;html=1;sketch=0;" parent="75" vertex="1">
                    <mxGeometry x="40" y="630" width="550" height="100" as="geometry"/>
                </mxCell>
                <mxCell id="78" value="Caption of pic" style="text;html=1;strokeColor=none;fillColor=none;align=center;verticalAlign=middle;whiteSpace=wrap;rounded=0;sketch=0;" parent="75" vertex="1">
                    <mxGeometry x="200" y="650" width="240" height="60" as="geometry"/>
                </mxCell>
                <mxCell id="79" value="Pic" style="text;html=1;strokeColor=none;fillColor=none;align=center;verticalAlign=middle;whiteSpace=wrap;rounded=0;sketch=0;" parent="75" vertex="1">
                    <mxGeometry x="233.5" y="382.5" width="164" height="85" as="geometry"/>
                </mxCell>
                <UserObject label="previous pic" link="https://www.draw.io" id="80">
                    <mxCell style="text;html=1;strokeColor=none;fillColor=none;whiteSpace=wrap;align=center;verticalAlign=middle;fontColor=#0000EE;fontStyle=4;rounded=0;sketch=0;" parent="75" vertex="1">
                        <mxGeometry x="21" y="405" width="60" height="40" as="geometry"/>
                    </mxCell>
                </UserObject>
                <UserObject label="next pic" link="https://www.draw.io" id="81">
                    <mxCell style="text;html=1;strokeColor=none;fillColor=none;whiteSpace=wrap;align=center;verticalAlign=middle;fontColor=#0000EE;fontStyle=4;rounded=0;sketch=0;" parent="75" vertex="1">
                        <mxGeometry x="551" y="405" width="60" height="40" as="geometry"/>
                    </mxCell>
                </UserObject>
                <mxCell id="82" value="" style="rounded=1;whiteSpace=wrap;html=1;sketch=0;" parent="75" vertex="1">
                    <mxGeometry x="253" y="40" width="124" height="170" as="geometry"/>
                </mxCell>
                <mxCell id="83" value="profile pic" style="text;html=1;strokeColor=none;fillColor=none;align=center;verticalAlign=middle;whiteSpace=wrap;rounded=0;sketch=0;" parent="75" vertex="1">
                    <mxGeometry x="295" y="115" width="40" height="20" as="geometry"/>
                </mxCell>
                <UserObject label="Profile Show page" link="https://www.draw.io" id="84">
                    <mxCell style="text;html=1;strokeColor=none;fillColor=none;whiteSpace=wrap;align=center;verticalAlign=middle;fontColor=#0000EE;fontStyle=4;rounded=0;sketch=0;" parent="75" vertex="1">
                        <mxGeometry x="10" y="28" width="60" height="40" as="geometry"/>
                    </mxCell>
                </UserObject>
                <UserObject label="Trips main page" link="https://www.draw.io" id="85">
                    <mxCell style="text;html=1;strokeColor=none;fillColor=none;whiteSpace=wrap;align=center;verticalAlign=middle;fontColor=#0000EE;fontStyle=4;rounded=0;sketch=0;" parent="75" vertex="1">
                        <mxGeometry x="560" y="30" width="60" height="40" as="geometry"/>
                    </mxCell>
                </UserObject>
                <UserObject label="Edit" link="https://www.draw.io" id="86">
                    <mxCell style="text;html=1;strokeColor=none;fillColor=none;whiteSpace=wrap;align=center;verticalAlign=middle;fontColor=#0000EE;fontStyle=4;rounded=0;sketch=0;" parent="75" vertex="1">
                        <mxGeometry x="140" y="30" width="60" height="40" as="geometry"/>
                    </mxCell>
                </UserObject>
                <UserObject label="Delete" link="https://www.draw.io" id="87">
                    <mxCell style="text;html=1;strokeColor=none;fillColor=none;whiteSpace=wrap;align=center;verticalAlign=middle;fontColor=#0000EE;fontStyle=4;rounded=0;sketch=0;" parent="75" vertex="1">
                        <mxGeometry x="441" y="30" width="60" height="40" as="geometry"/>
                    </mxCell>
                </UserObject>
                <mxCell id="92" value="Trips Edit page" style="swimlane;rounded=0;sketch=0;" parent="1" vertex="1">
                    <mxGeometry x="-154.5" y="5770" width="640" height="850" as="geometry"/>
                </mxCell>
                <UserObject label="Add image/video" link="https://www.draw.io" id="93">
                    <mxCell style="text;html=1;strokeColor=none;fillColor=none;whiteSpace=wrap;align=center;verticalAlign=middle;fontColor=#0000EE;fontStyle=4;rounded=0;sketch=0;" parent="92" vertex="1">
                        <mxGeometry x="85" y="640" width="60" height="40" as="geometry"/>
                    </mxCell>
                </UserObject>
                <UserObject label="Delete image/video" link="https://www.draw.io" id="94">
                    <mxCell style="text;html=1;strokeColor=none;fillColor=none;whiteSpace=wrap;align=center;verticalAlign=middle;fontColor=#0000EE;fontStyle=4;rounded=0;sketch=0;" parent="92" vertex="1">
                        <mxGeometry x="490" y="640" width="60" height="40" as="geometry"/>
                    </mxCell>
                </UserObject>
                <UserObject label="Edit/delete caption" link="https://www.draw.io" id="95">
                    <mxCell style="text;html=1;strokeColor=none;fillColor=none;whiteSpace=wrap;align=center;verticalAlign=middle;fontColor=#0000EE;fontStyle=4;rounded=0;sketch=0;" parent="92" vertex="1">
                        <mxGeometry x="290" y="640" width="60" height="40" as="geometry"/>
                    </mxCell>
                </UserObject>
                <mxCell id="96" value="" style="rounded=1;whiteSpace=wrap;html=1;sketch=0;" parent="92" vertex="1">
                    <mxGeometry y="130" width="640" height="380" as="geometry"/>
                </mxCell>
                <mxCell id="97" value="Pic" style="text;html=1;strokeColor=none;fillColor=none;align=center;verticalAlign=middle;whiteSpace=wrap;rounded=0;sketch=0;" parent="92" vertex="1">
                    <mxGeometry x="300" y="320" width="40" height="20" as="geometry"/>
                </mxCell>
                <mxCell id="98" value="" style="rounded=1;whiteSpace=wrap;html=1;sketch=0;" parent="92" vertex="1">
                    <mxGeometry x="45" y="530" width="550" height="100" as="geometry"/>
                </mxCell>
                <mxCell id="99" value="Caption of pic" style="text;html=1;strokeColor=none;fillColor=none;align=center;verticalAlign=middle;whiteSpace=wrap;rounded=0;sketch=0;" parent="92" vertex="1">
                    <mxGeometry x="200" y="550" width="240" height="60" as="geometry"/>
                </mxCell>
                <UserObject label="Profile Show page" link="https://www.draw.io" id="100">
                    <mxCell style="text;html=1;strokeColor=none;fillColor=none;whiteSpace=wrap;align=center;verticalAlign=middle;fontColor=#0000EE;fontStyle=4;rounded=0;sketch=0;" parent="92" vertex="1">
                        <mxGeometry x="20" y="40" width="60" height="40" as="geometry"/>
                    </mxCell>
                </UserObject>
                <mxCell id="101" value="User Edit page" style="swimlane;" vertex="1" parent="1">
                    <mxGeometry x="-151" y="3140" width="630" height="850" as="geometry"/>
                </mxCell>
                <mxCell id="90" value="edit name&lt;br&gt;edit email&lt;br&gt;edit bio" style="rounded=1;whiteSpace=wrap;html=1;sketch=0;" parent="101" vertex="1">
                    <mxGeometry x="255" y="330" width="120" height="60" as="geometry"/>
                </mxCell>
                <mxCell id="91" value="SAVE BUTTON" style="rounded=1;whiteSpace=wrap;html=1;sketch=0;" parent="101" vertex="1">
                    <mxGeometry x="255" y="390" width="120" height="60" as="geometry"/>
                </mxCell>
                <mxCell id="102" value="User New page" style="swimlane;" vertex="1" parent="1">
                    <mxGeometry x="-151" y="2270" width="630" height="850" as="geometry"/>
                </mxCell>
                <mxCell id="88" value="enter name&lt;br&gt;enter email&lt;br&gt;enter bio" style="rounded=1;whiteSpace=wrap;html=1;sketch=0;" parent="102" vertex="1">
                    <mxGeometry x="256" y="330" width="120" height="60" as="geometry"/>
                </mxCell>
                <mxCell id="89" value="SUBMIT BUTTON" style="rounded=1;whiteSpace=wrap;html=1;sketch=0;" parent="102" vertex="1">
                    <mxGeometry x="256" y="390" width="120" height="60" as="geometry"/>
                </mxCell>
            </root>
        </mxGraphModel>
    </diagram>
</mxfile>